STARTFONT 2.1
COMMENT This file is part of bdf-tewi.
COMMENT 
COMMENT Tewi is free software: you can redistribute it and/or modify
COMMENT it under the terms of the GNU General Public License as published by
COMMENT the Free Software Foundation, either version 3 of the License, or
COMMENT (at your option) any later version.
COMMENT 
COMMENT Tewi is distributed in the hope that it will be useful,
COMMENT but WITHOUT ANY WARRANTY; without even the implied warranty of
COMMENT MERCHANTABILITY or FITNESS FOR A PARTICULAR PURPOSE.  See the
COMMENT GNU General Public License for more details.
COMMENT 
COMMENT You should have received a copy of the GNU General Public License
COMMENT along with bdf-tewi.  If not, see <http://www.gnu.org/licenses/>.
COMMENT 
COMMENT As a special exception, if you create a document which uses this
COMMENT font, and embed this font or unaltered portions of this font into
COMMENT the document, this font does not by itself cause the resulting
COMMENT document to be covered by the GNU General Public License. This
COMMENT exception does not however invalidate any other reasons why the
COMMENT document might be covered by the GNU General Public License. If you
COMMENT modify this font, you may extend this exception to your version of
COMMENT the font, but you are not obligated to do so. If you do not wish to
COMMENT do so, delete this exception statement from your version.
FONT -lucy-tewifw-bold-r-normal--11-90-75-75-m-60-ISO10646-1
SIZE 9 75 75
FONTBOUNDINGBOX 12 13 0 -4
STARTPROPERTIES 20
CHARSET_COLLECTIONS "ISO8859-2 ISO8859-5 ISO8859-9 ISO8859-4 ISO10646-1"
COPYRIGHT "© lucy <ne.tetewi@gmail.com>"
FOUNDRY "lucy"
FAMILY_NAME "tewifw"
WEIGHT_NAME "bold"
SLANT "r"
SETWIDTH_NAME "normal"
ADD_STYLE_NAME ""
PIXEL_SIZE 11
POINT_SIZE 90
RESOLUTION_X 75
RESOLUTION_Y 75
SPACING "M"
AVERAGE_WIDTH 60
CHARSET_REGISTRY "ISO10646"
CHARSET_ENCODING "1"
FONT_ASCENT 9
FONT_DESCENT 3
QUAD_WIDTH 12
_GBDFED_INFO "Edited with gbdfed 1.6."
ENDPROPERTIES
CHARS 35
STARTCHAR <control>
ENCODING 0
SWIDTH 1280 0
DWIDTH 12 0
BBX 0 0 0 0
BITMAP
ENDCHAR
STARTCHAR WAVY OVERLINE
ENCODING 65099
SWIDTH 1280 0
DWIDTH 12 0
BBX 11 2 0 6
BITMAP
DDC0
7760
ENDCHAR
STARTCHAR WAVY LOW LINE
ENCODING 65103
SWIDTH 1280 0
DWIDTH 12 0
BBX 11 2 0 -1
BITMAP
DDC0
7760
ENDCHAR
STARTCHAR FULLWIDTH EXCLAMATION MARK
ENCODING 65281
SWIDTH 1280 0
DWIDTH 12 0
BBX 2 8 5 0
BITMAP
C0
C0
C0
C0
C0
C0
00
C0
ENDCHAR
STARTCHAR FULLWIDTH QUOTATION MARK
ENCODING 65282
SWIDTH 1280 0
DWIDTH 12 0
BBX 5 3 3 5
BITMAP
D8
D8
D8
ENDCHAR
STARTCHAR FULLWIDTH NUMBER SIGN
ENCODING 65283
SWIDTH 1280 0
DWIDTH 12 0
BBX 9 8 2 0
BITMAP
1B00
1B00
7F80
3600
3600
FF00
6C00
6C00
ENDCHAR
STARTCHAR FULLWIDTH DOLLAR SIGN
ENCODING 65284
SWIDTH 1280 0
DWIDTH 12 0
BBX 8 9 2 -1
BITMAP
18
7E
DB
D8
7E
1B
DB
7E
18
ENDCHAR
STARTCHAR FULLWIDTH PERCENT SIGN
ENCODING 65285
SWIDTH 1280 0
DWIDTH 12 0
BBX 9 8 2 0
BITMAP
6600
D600
D600
6C00
1B00
3680
6680
6300
ENDCHAR
STARTCHAR FULLWIDTH AMPERSAND
ENCODING 65286
SWIDTH 1280 0
DWIDTH 12 0
BBX 9 8 2 0
BITMAP
3800
6C00
7800
3000
7380
CB00
CE00
7F00
ENDCHAR
STARTCHAR FULLWIDTH APOSTROPHE
ENCODING 65287
SWIDTH 1280 0
DWIDTH 12 0
BBX 3 4 3 4
BITMAP
E0
E0
60
C0
ENDCHAR
STARTCHAR FULLWIDTH LEFT PARENTHESIS
ENCODING 65288
SWIDTH 1280 0
DWIDTH 12 0
BBX 4 10 4 -2
BITMAP
30
60
60
C0
C0
C0
C0
60
60
30
ENDCHAR
STARTCHAR FULLWIDTH RIGHT PARENTHESIS
ENCODING 65289
SWIDTH 1280 0
DWIDTH 12 0
BBX 4 10 4 -2
BITMAP
C0
60
60
30
30
30
30
60
60
C0
ENDCHAR
STARTCHAR FULLWIDTH ASTERISK
ENCODING 65290
SWIDTH 1280 0
DWIDTH 12 0
BBX 5 7 3 0
BITMAP
20
A8
F8
70
F8
A8
20
ENDCHAR
STARTCHAR FULLWIDTH PLUS SIGN
ENCODING 65291
SWIDTH 1280 0
DWIDTH 12 0
BBX 8 7 2 0
BITMAP
18
18
18
FF
18
18
18
ENDCHAR
STARTCHAR FULLWIDTH COMMA
ENCODING 65292
SWIDTH 1280 0
DWIDTH 12 0
BBX 3 4 1 -2
BITMAP
E0
E0
60
C0
ENDCHAR
STARTCHAR FULLWIDTH HYPHEN-MINUS
ENCODING 65293
SWIDTH 1280 0
DWIDTH 12 0
BBX 9 1 1 3
BITMAP
FF80
ENDCHAR
STARTCHAR FULLWIDTH FULL STOP
ENCODING 65294
SWIDTH 1280 0
DWIDTH 12 0
BBX 3 2 1 0
BITMAP
E0
E0
ENDCHAR
STARTCHAR FULLWIDTH SOLIDUS
ENCODING 65295
SWIDTH 1280 0
DWIDTH 12 0
BBX 10 9 1 -2
BITMAP
00C0
0180
0300
0600
0C00
1800
3000
6000
C000
ENDCHAR
STARTCHAR FULLWIDTH DIGIT ZERO
ENCODING 65296
SWIDTH 1280 0
DWIDTH 12 0
BBX 6 8 2 0
BITMAP
78
CC
DC
DC
F4
F4
E4
78
ENDCHAR
STARTCHAR FULLWIDTH DIGIT ONE
ENCODING 65297
SWIDTH 1280 0
DWIDTH 12 0
BBX 6 8 3 0
BITMAP
30
70
F0
30
30
30
30
FC
ENDCHAR
STARTCHAR FULLWIDTH DIGIT TWO
ENCODING 65298
SWIDTH 1280 0
DWIDTH 12 0
BBX 6 8 2 0
BITMAP
78
CC
CC
0C
18
30
60
FC
ENDCHAR
STARTCHAR FULLWIDTH DIGIT THREE
ENCODING 65299
SWIDTH 1280 0
DWIDTH 12 0
BBX 6 8 2 0
BITMAP
78
CC
0C
38
0C
0C
CC
78
ENDCHAR
STARTCHAR FULLWIDTH DIGIT FOUR
ENCODING 65300
SWIDTH 1280 0
DWIDTH 12 0
BBX 6 8 2 0
BITMAP
08
18
38
58
D8
FC
08
1C
ENDCHAR
STARTCHAR FULLWIDTH DIGIT FIVE
ENCODING 65301
SWIDTH 1280 0
DWIDTH 12 0
BBX 6 8 2 0
BITMAP
FC
C0
C0
78
0C
0C
CC
78
ENDCHAR
STARTCHAR FULLWIDTH DIGIT SIX
ENCODING 65302
SWIDTH 1280 0
DWIDTH 12 0
BBX 6 8 2 0
BITMAP
78
C0
C0
F8
CC
CC
CC
78
ENDCHAR
STARTCHAR FULLWIDTH DIGIT SEVEN
ENCODING 65303
SWIDTH 1280 0
DWIDTH 12 0
BBX 6 8 2 0
BITMAP
FC
0C
0C
18
18
30
30
30
ENDCHAR
STARTCHAR FULLWIDTH DIGIT EIGHT
ENCODING 65304
SWIDTH 1280 0
DWIDTH 12 0
BBX 6 8 2 0
BITMAP
78
CC
CC
78
CC
CC
CC
78
ENDCHAR
STARTCHAR FULLWIDTH DIGIT NINE
ENCODING 65305
SWIDTH 1280 0
DWIDTH 12 0
BBX 6 8 2 0
BITMAP
78
CC
CC
CC
7C
0C
0C
78
ENDCHAR
STARTCHAR FULLWIDTH COLON
ENCODING 65306
SWIDTH 1280 0
DWIDTH 12 0
BBX 3 6 1 0
BITMAP
E0
E0
00
00
E0
E0
ENDCHAR
STARTCHAR FULLWIDTH SEMICOLON
ENCODING 65307
SWIDTH 1280 0
DWIDTH 12 0
BBX 3 8 1 -2
BITMAP
E0
E0
00
00
E0
E0
60
C0
ENDCHAR
STARTCHAR FULLWIDTH LESS-THAN SIGN
ENCODING 65308
SWIDTH 1280 0
DWIDTH 12 0
BBX 6 9 3 -1
BITMAP
0C
18
30
60
C0
60
30
18
0C
ENDCHAR
STARTCHAR FULLWIDTH EQUALS SIGN
ENCODING 65309
SWIDTH 1280 0
DWIDTH 12 0
BBX 6 4 2 2
BITMAP
FC
00
00
FC
ENDCHAR
STARTCHAR FULLWIDTH GREATER-THAN SIGN
ENCODING 65310
SWIDTH 1280 0
DWIDTH 12 0
BBX 6 9 3 -1
BITMAP
C0
60
30
18
0C
18
30
60
C0
ENDCHAR
STARTCHAR FULLWIDTH QUESTION MARK
ENCODING 65311
SWIDTH 1280 0
DWIDTH 12 0
BBX 6 8 2 0
BITMAP
78
CC
CC
18
30
30
00
30
ENDCHAR
STARTCHAR FULLWIDTH COMMERCIAL AT
ENCODING 65312
SWIDTH 1280 0
DWIDTH 12 0
BBX 9 8 2 0
BITMAP
3E00
6300
DD80
B580
B580
DB00
6000
3E00
ENDCHAR
ENDFONT
